<?xml version="1.0" standalone="no"?>
<!DOCTYPE svg PUBLIC "-//W3C//DTD SVG 20010904//EN"
 "http://www.w3.org/TR/2001/REC-SVG-20010904/DTD/svg10.dtd">
<svg version="1.0" xmlns="http://www.w3.org/2000/svg"
 width="1280.000000pt" height="640.000000pt" viewBox="0 0 1280.000000 640.000000"
 preserveAspectRatio="xMidYMid meet">
<metadata>
Created by potrace 1.15, written by Peter Selinger 2001-2017
</metadata>
<g transform="translate(0.000000,640.000000) scale(0.100000,-0.100000)"
fill="#000000" stroke="none">
<path d="M4210 3980 l0 -1120 115 0 c63 0 123 -4 133 -10 9 -5 107 -44 217
-85 110 -42 216 -82 235 -89 l35 -14 3 -71 3 -71 -136 0 c-95 0 -146 4 -170
14 -70 30 -177 41 -264 27 -45 -6 -97 -19 -116 -27 -28 -11 -104 -14 -404 -14
-359 0 -371 1 -381 20 -6 11 -27 31 -48 45 l-37 25 -522 0 -523 0 0 35 0 35
158 0 157 0 113 75 112 75 0 218 c0 206 -1 218 -20 230 -19 12 -20 23 -20 242
l0 230 -30 0 -30 0 0 270 0 270 53 1 c50 0 51 1 30 16 -17 11 -23 25 -23 54 0
34 -3 38 -27 41 l-28 3 -3 119 c-2 72 1 123 8 131 8 9 -4 24 -45 60 -31 26
-59 44 -63 41 -3 -4 7 -18 23 -30 17 -13 41 -33 55 -44 l25 -21 -63 -1 -63 0
2 -127 1 -128 -36 -3 c-34 -3 -36 -5 -36 -39 0 -20 -7 -45 -17 -55 -15 -17
-14 -18 38 -18 l54 0 -2 -267 -2 -268 -31 -3 -30 -3 0 -223 0 -222 -77 -57
c-71 -52 -81 -57 -129 -57 l-53 0 -3 518 -3 517 -23 48 c-13 26 -40 61 -60 77
-68 56 -101 60 -474 60 l-338 0 0 40 0 40 50 0 c36 0 50 -4 50 -14 0 -7 7 -19
15 -26 22 -18 45 4 46 44 0 30 1 29 22 -18 l23 -50 12 41 c15 52 6 103 -19
103 -10 0 -21 -6 -26 -12 -5 -9 -9 -3 -13 17 -4 24 -10 30 -30 30 -20 0 -26
-6 -28 -29 -3 -28 -5 -28 -50 -23 -26 4 -159 9 -297 13 -225 6 -252 9 -275 26
l-25 19 -7 -27 c-8 -30 1 -144 11 -144 3 0 15 7 25 15 11 8 32 15 48 15 25 0
28 -3 28 -35 l0 -35 -80 0 c-64 0 -80 3 -80 15 0 8 -4 15 -10 15 -6 0 -10 80
-10 220 0 245 3 237 -69 201 -93 -48 -158 -168 -180 -335 -6 -44 -16 -85 -22
-92 -7 -8 -6 -15 2 -20 15 -9 -42 -32 -83 -33 -37 -1 -162 -57 -218 -97 -50
-36 -98 -94 -78 -94 7 0 44 7 82 15 38 8 71 14 72 12 1 -1 -56 -146 -127 -321
l-130 -319 1 -459 1 -458 -28 0 c-54 0 -54 3 -51 -271 l3 -254 60 -3 c69 -4
85 9 85 69 0 22 5 39 14 42 8 3 42 42 75 86 53 70 66 81 92 81 l30 0 -44 -57
c-79 -102 -116 -191 -137 -335 -20 -135 23 -308 106 -434 65 -98 192 -197 303
-236 72 -26 202 -34 283 -19 70 14 187 72 255 128 206 169 279 481 174 743
-22 52 -55 107 -108 177 -19 25 -22 33 -10 33 8 0 46 -36 83 -80 55 -64 74
-80 96 -80 l28 0 0 -180 0 -180 28 0 c35 0 72 -37 72 -73 0 -46 31 -57 161
-57 128 0 149 9 149 64 0 36 35 65 78 66 l32 0 0 180 0 180 50 0 50 0 0 -137
c0 -168 14 -202 95 -243 l50 -25 605 0 c602 0 605 0 653 22 30 14 54 34 68 57
l21 36 184 0 184 0 0 -48 c0 -138 76 -309 186 -418 127 -126 271 -182 437
-171 141 9 256 64 367 176 106 107 159 226 185 414 l6 47 144 0 144 0 5 -47
c28 -232 128 -401 299 -507 93 -57 153 -77 254 -83 108 -7 189 10 281 58 96
51 154 99 213 177 203 268 160 663 -95 880 -75 64 -196 120 -289 134 -84 13
-193 1 -262 -28 -25 -10 -78 -14 -190 -14 l-155 0 0 84 0 85 233 75 c127 42
240 81 249 86 10 6 83 10 163 10 l145 0 0 -149 0 -149 33 -19 c62 -37 168
-135 188 -174 18 -37 23 -40 57 -37 l37 3 3 263 2 262 658 0 657 0 48 -57 c46
-56 47 -59 47 -125 l0 -68 -238 0 c-219 0 -240 -2 -255 -18 -24 -27 -25 -303
-1 -326 14 -14 78 -16 557 -16 298 0 547 4 553 8 27 17 34 56 34 177 0 120 -1
127 -25 150 l-24 25 -256 0 -255 0 0 71 c0 68 2 72 43 124 l42 54 448 0 447 1
0 -130 0 -130 1805 0 1805 0 0 -425 0 -425 25 0 25 0 0 420 c0 365 2 421 15
426 12 5 15 30 15 135 l0 129 60 0 60 0 0 1120 0 1120 -4295 0 -4295 0 0
-1120z m-2800 470 l0 -40 -149 0 c-82 0 -157 -3 -166 -6 -14 -6 -16 0 -13 32
l3 39 120 5 c66 4 139 7 163 8 l42 2 0 -40z m297 -2590 c14 -11 36 -20 49 -20
17 0 24 -6 24 -19 0 -49 -5 -51 -129 -51 -124 0 -141 6 -141 47 0 17 6 23 23
23 13 0 32 9 42 20 13 14 31 20 62 20 30 0 54 -7 70 -20z"/>
<path d="M3770 4295 l0 -645 215 0 215 0 -2 643 -3 642 -212 3 -213 2 0 -645z"/>
<path d="M4047 3423 c-4 -3 -7 -80 -7 -170 l0 -163 75 0 75 0 0 170 0 170 -68
0 c-38 0 -72 -3 -75 -7z"/>
<path d="M3654 3288 c-4 -7 -3 -8 5 -4 6 4 20 2 29 -6 15 -12 16 -11 3 5 -16
20 -27 22 -37 5z"/>
<path d="M3800 3296 c0 -2 8 -10 18 -17 15 -13 16 -12 3 4 -13 16 -21 21 -21
13z"/>
<path d="M3536 3282 c-2 -4 4 -8 14 -8 10 0 16 4 14 8 -3 4 -9 8 -14 8 -5 0
-11 -4 -14 -8z"/>
<path d="M3010 3240 c0 -22 2 -40 4 -40 2 0 6 18 8 40 2 22 0 40 -4 40 -5 0
-8 -18 -8 -40z"/>
<path d="M3310 3266 c0 -2 7 -7 16 -10 8 -3 12 -2 9 4 -6 10 -25 14 -25 6z"/>
<path d="M3962 3230 c0 -19 2 -27 5 -17 2 9 2 25 0 35 -3 9 -5 1 -5 -18z"/>
<path d="M3521 3224 c0 -11 3 -14 6 -6 3 7 2 16 -1 19 -3 4 -6 -2 -5 -13z"/>
<path d="M3992 3190 c0 -14 2 -19 5 -12 2 6 2 18 0 25 -3 6 -5 1 -5 -13z"/>
<path d="M3691 3184 c0 -11 3 -14 6 -6 3 7 2 16 -1 19 -3 4 -6 -2 -5 -13z"/>
<path d="M3921 3174 c0 -11 3 -14 6 -6 3 7 2 16 -1 19 -3 4 -6 -2 -5 -13z"/>
<path d="M3651 3170 c-1 -20 27 -56 36 -47 3 4 0 13 -9 20 -9 6 -18 19 -21 27
-5 13 -5 13 -6 0z"/>
<path d="M3970 3166 c0 -2 8 -10 18 -17 15 -13 16 -12 3 4 -13 16 -21 21 -21
13z"/>
<path d="M3013 3133 c-12 -13 -18 -23 -14 -23 5 0 14 7 21 15 10 12 16 13 29
3 14 -12 15 -11 1 7 -8 11 -14 20 -15 21 0 0 -10 -10 -22 -23z"/>
<path d="M3310 3145 c0 -5 5 -17 10 -25 5 -8 10 -10 10 -5 0 6 -5 17 -10 25
-5 8 -10 11 -10 5z"/>
<path d="M3773 3135 c0 -8 8 -16 18 -18 11 -3 16 0 12 8 -7 19 -30 26 -30 10z"/>
<path d="M3235 3130 c-8 -12 12 -40 28 -40 6 0 3 6 -8 13 -10 8 -15 19 -11 25
4 7 5 12 2 12 -3 0 -8 -5 -11 -10z"/>
<path d="M3444 3113 c-13 -20 -13 -25 -2 -16 8 7 17 11 19 8 3 -2 5 5 5 15 0
25 0 25 -22 -7z"/>
<path d="M3547 3127 c-3 -7 3 -13 14 -13 13 0 15 3 7 13 -6 7 -12 13 -13 13
-2 0 -5 -6 -8 -13z"/>
<path d="M3508 3103 c7 -3 16 -2 19 1 4 3 -2 6 -13 5 -11 0 -14 -3 -6 -6z"/>
<path d="M8744 2630 c0 -124 2 -174 3 -112 2 61 2 163 0 225 -1 61 -3 11 -3
-113z"/>
<path d="M6890 2505 c0 -306 -1 -335 -17 -335 -9 0 -36 -20 -60 -45 -40 -42
-43 -50 -43 -98 0 -154 207 -214 296 -86 38 55 37 114 -1 168 -16 24 -41 46
-61 53 l-34 12 0 333 0 333 -40 0 -40 0 0 -335z"/>
<path d="M9983 2555 c-159 -35 -324 -169 -402 -325 -90 -185 -93 -384 -6 -567
43 -93 91 -156 162 -215 219 -182 493 -185 715 -7 170 137 260 362 229 576
-31 218 -146 387 -330 486 -115 62 -240 80 -368 52z"/>
<path d="M11465 2558 c-72 -13 -201 -80 -266 -138 -175 -154 -252 -403 -197
-640 6 -25 28 -83 50 -130 54 -113 167 -228 278 -282 359 -175 770 71 823 494
25 198 -41 389 -182 528 -147 145 -320 203 -506 168z"/>
<path d="M10390 2555 c0 -2 19 -14 41 -26 47 -24 118 -87 190 -170 41 -48 52
-69 76 -155 15 -54 29 -133 32 -174 l6 -75 98 -3 97 -3 0 63 c0 51 9 84 47
180 l46 118 121 125 121 125 -437 0 c-241 0 -438 -2 -438 -5z"/>
<path d="M11959 2488 c44 -35 98 -87 119 -118 46 -65 95 -182 112 -262 6 -32
13 -58 15 -58 2 0 56 62 119 137 l116 137 0 113 0 113 -281 0 -281 0 81 -62z"/>
<path d="M8801 2394 c0 -11 3 -14 6 -6 3 7 2 16 -1 19 -3 4 -6 -2 -5 -13z"/>
<path d="M8679 2263 l-24 -28 28 24 c15 14 27 26 27 28 0 8 -8 1 -31 -24z"/>
<path d="M8719 2213 c-13 -16 -12 -17 4 -4 16 13 21 21 13 21 -2 0 -10 -8 -17
-17z"/>
<path d="M7743 2193 c141 -2 373 -2 515 0 141 1 25 2 -258 2 -283 0 -399 -1
-257 -2z"/>
</g>
</svg>
